<svg xmlns="http://www.w3.org/2000/svg" viewBox="0 0 18 23.9">
  <defs>
    <style>
      .a {
        fill: #ffce00;
      }
    </style>
  </defs>
  <path class="a" d="M9,0H5.3A4.5,4.5,0,0,0,3.1.6,5.2,5.2,0,0,0,1.5,2a5.8,5.8,0,0,0-1,2.1A8.1,8.1,0,0,0,.1,7C0,8.3,0,8.7,0,12s0,3.6.1,4.9a7.8,7.8,0,0,0,.4,2.9,5.1,5.1,0,0,0,1,2.1,5.2,5.2,0,0,0,1.6,1.4,5.8,5.8,0,0,0,2.2.6h7.4a5.8,5.8,0,0,0,2.2-.6,5.2,5.2,0,0,0,1.6-1.4,6.8,6.8,0,0,0,1-2.1,10.6,10.6,0,0,0,.4-2.9c.1-1.3.1-1.7.1-4.9s0-3.7-.1-5a11.2,11.2,0,0,0-.4-2.9,6.8,6.8,0,0,0-1-2.1A5.2,5.2,0,0,0,14.9.6,4.5,4.5,0,0,0,12.7.1ZM9,2.2h3.6a7,7,0,0,1,1.7.4,4.3,4.3,0,0,1,1,.9A2.3,2.3,0,0,1,16,4.9a8.1,8.1,0,0,1,.3,2.2c.1,1.3.1,1.7.1,4.9s0,3.5-.1,4.8A7.4,7.4,0,0,1,16,19a4.6,4.6,0,0,1-.7,1.4,2.8,2.8,0,0,1-1,.9,4.1,4.1,0,0,1-1.7.4H5.3a7.1,7.1,0,0,1-1.6-.4,3.1,3.1,0,0,1-1.1-.9A6.1,6.1,0,0,1,1.9,19a16.4,16.4,0,0,1-.3-2.2V7.1a14.1,14.1,0,0,1,.3-2.2,4.6,4.6,0,0,1,.7-1.4,2.4,2.4,0,0,1,1.1-.9,2.6,2.6,0,0,1,1.6-.4H9ZM9,5.5c-3.4-.1-6.1,4.8-3.9,9.7a3.8,3.8,0,0,0,3.3,2.6h.7a4.1,4.1,0,0,0,3.7-2.7C14.8,10.4,12.4,5.6,9,5.5ZM9,16c-1.7,0-3-1.8-3-4S7.3,8,9,8s3,1.8,3,4S10.7,16,9,16ZM14.9,5.6A1.3,1.3,0,0,1,13.8,7a1.3,1.3,0,0,1-1.1-1.4h0c0-.8.5-1.5,1.1-1.5S14.9,4.8,14.9,5.6Z"/>
</svg>
