<svg xmlns="http://www.w3.org/2000/svg" viewBox="0 0 18 18">
  <defs>
    <style>
      .a {
        fill: #ffce00;
      }
    </style>
  </defs>
  <path class="a" d="M9,0C6.56,0,6.25,0,5.29.05A6.9,6.9,0,0,0,3.1.47a4.43,4.43,0,0,0-1.59,1,4.42,4.42,0,0,0-1,1.59A6.9,6.9,0,0,0,.05,5.29C0,6.25,0,6.56,0,9s0,2.75.05,3.71A6.9,6.9,0,0,0,.47,14.9a4.42,4.42,0,0,0,1,1.59,4.43,4.43,0,0,0,1.59,1A6.9,6.9,0,0,0,5.29,18c1,0,1.27.05,3.71.05s2.75,0,3.71-.05a6.9,6.9,0,0,0,2.19-.42,4.43,4.43,0,0,0,1.59-1,4.39,4.39,0,0,0,1-1.6A6.78,6.78,0,0,0,18,12.71c0-1,.05-1.27.05-3.71S18,6.25,18,5.29a6.9,6.9,0,0,0-.42-2.19,4.43,4.43,0,0,0-1-1.59,4.39,4.39,0,0,0-1.6-1A6.78,6.78,0,0,0,12.71.05C11.75,0,11.44,0,9,0ZM9,1.62c2.4,0,2.69,0,3.64,0A5.12,5.12,0,0,1,14.31,2a2.77,2.77,0,0,1,1,.68,2.77,2.77,0,0,1,.68,1,5.12,5.12,0,0,1,.31,1.67c0,.95.05,1.24.05,3.64s0,2.69-.06,3.64A5.12,5.12,0,0,1,16,14.31a2.77,2.77,0,0,1-.68,1,2.85,2.85,0,0,1-1,.68,5.13,5.13,0,0,1-1.68.31c-.95,0-1.24.05-3.64.05s-2.69,0-3.65-.06A5,5,0,0,1,3.66,16a2.89,2.89,0,0,1-1-.68,2.7,2.7,0,0,1-.67-1,5.06,5.06,0,0,1-.32-1.68c0-.94,0-1.24,0-3.63s0-2.69,0-3.65A5,5,0,0,1,2,3.67a2.67,2.67,0,0,1,.67-1,2.67,2.67,0,0,1,1-.67,4.85,4.85,0,0,1,1.66-.32c1,0,1.24,0,3.65,0Zm0,2.5a4.7,4.7,0,0,0-3.93,7.32,3.89,3.89,0,0,0,3.3,1.92h.71a4.22,4.22,0,0,0,3.75-2A4.69,4.69,0,0,0,9,4.12ZM9,12a3,3,0,1,1,3-3A3,3,0,0,1,9,12Zm5.88-7.8a1.08,1.08,0,0,1-2.16,0h0a1.08,1.08,0,1,1,2.16,0Z"/>
</svg>
