<svg xmlns="http://www.w3.org/2000/svg" viewBox="0 0 98.6 67.1">
  <defs>
    <style>
      .a {
        fill: #ffce00;
      }
    </style>
  </defs>
  <g>
    <path class="a" d="M38.4,14.7C11.9,30-4.8,50.9,1.2,61.3s32.4,6.4,59-8.9S103.4,16.2,97.4,5.8,65-.6,38.4,14.7ZM35.6,44.9c.3.9.6,1.8.8,2.6a11.2,11.2,0,0,1,.3,2.4,4.6,4.6,0,0,1-.5,2,3.3,3.3,0,0,1-1.3,1.3,3.4,3.4,0,0,1-3.1.2,9.6,9.6,0,0,1-3.2-2.3,21.6,21.6,0,0,1-2.8-4,18.9,18.9,0,0,1-2-4.4,7.7,7.7,0,0,1-.4-3.9,3.3,3.3,0,0,1,1.7-2.7,3.7,3.7,0,0,1,1.8-.4,3.3,3.3,0,0,1,1.9.6,6.2,6.2,0,0,1,1.9,1.4,18,18,0,0,1,1.9,2,29.6,29.6,0,0,1,1.6,2.6Zm5.8-5.1a1.1,1.1,0,0,1-.6,1.1,1.3,1.3,0,0,1-1.2,0,2.9,2.9,0,0,1-1.1-1.1,2.8,2.8,0,0,1-.4-1.5c.1-.5.2-.9.6-1.1a1.3,1.3,0,0,1,1.2,0A2.9,2.9,0,0,1,41,38.3,2.8,2.8,0,0,1,41.4,39.8ZM56.5,39a3.7,3.7,0,0,1-1.9,2.9,3.7,3.7,0,0,1-3.1.2,7.9,7.9,0,0,1-3.3-2.2L49.4,38a5.7,5.7,0,0,0,2.1,1.2,1.9,1.9,0,0,0,1.8-.1,2,2,0,0,0,.8-1.2,2.9,2.9,0,0,0-.5-1.9,2.3,2.3,0,0,0-1.5-1.2,8.5,8.5,0,0,0-2.5-.5H48l-1.4-.4a3.9,3.9,0,0,1-1.6-1,5.3,5.3,0,0,1-1.3-1.6,5.6,5.6,0,0,1-.8-3.7,3.3,3.3,0,0,1,1.7-2.7,3.6,3.6,0,0,1,2.7-.2A5.9,5.9,0,0,1,50,26.4l-1.2,1.9c-1-1-2-1.2-2.8-.7a1.3,1.3,0,0,0-.7,1,1.7,1.7,0,0,0,.4,1.5.5.5,0,0,0,.2.4l.3.3h.3a.5.5,0,0,0,.4.2h2.3l1.6.2,1.6.4a6.2,6.2,0,0,1,1.7,1.1,6.1,6.1,0,0,1,1.4,1.7A6.8,6.8,0,0,1,56.5,39ZM61,28.5a1.1,1.1,0,0,1-.6,1.1,1.3,1.3,0,0,1-1.2,0,2.9,2.9,0,0,1-1.1-1.1,2.8,2.8,0,0,1-.4-1.5,1.1,1.1,0,0,1,.6-1.1,1.3,1.3,0,0,1,1.2,0A3.8,3.8,0,0,1,60.6,27,2.8,2.8,0,0,1,61,28.5Zm13.2,2.3a4.1,4.1,0,0,1-1.9.5,6.6,6.6,0,0,1-2-.6,13,13,0,0,1-2-1.5,17.1,17.1,0,0,1-1.8-2,20,20,0,0,1-1.6-2.4,18.7,18.7,0,0,1-1.5-3.2,17.7,17.7,0,0,1-.8-3.1,6.4,6.4,0,0,1,.2-2.8,3.5,3.5,0,0,1,1.6-2,3.1,3.1,0,0,1,2.8-.2,6.9,6.9,0,0,1,2.6,1.7l-.9,2.2a5.9,5.9,0,0,0-1.7-1.1,1.5,1.5,0,0,0-1.3.1,1.9,1.9,0,0,0-.8,1.8,6.1,6.1,0,0,0,.4,2.6,19.2,19.2,0,0,0,1.4,2.9,14.2,14.2,0,0,0,3,3.7c1.1.9,2,1.2,2.8.7s.9-1.5.6-3.1h2.2C76.3,27.9,75.9,29.8,74.2,30.8Zm-15.5,19C33.3,64.5,9.3,68.8,4,59.7S14.5,31.9,39.9,17.3s49.4-19,54.7-9.9c2.6,4.4.2,11.3-6.7,19.4S70.7,42.9,58.7,49.8ZM40.5,18.3C28.6,25.1,18.3,33.2,11.6,41S2.7,55.2,5,59.1s9.2,5.2,19,3.3,22.2-6.7,34.1-13.6S80.3,33.9,87,26s8.9-14.1,6.6-18-9.2-5.2-19-3.3S52.4,11.4,40.5,18.3Z"/>
    <path class="a" d="M26.6,38.8c-.7.4-1,1.3-.7,2.7A16.2,16.2,0,0,0,27.7,46a16.5,16.5,0,0,0,3,3.9c1,.9,1.9,1.1,2.7.7a2.1,2.1,0,0,0,.8-1.6,8.5,8.5,0,0,0-.5-2.6,21,21,0,0,0-1.5-3,12.5,12.5,0,0,0-3-3.9C28.2,38.6,27.3,38.4,26.6,38.8Z"/>
  </g>
</svg>
